<svg xmlns="http://www.w3.org/2000/svg" xmlns:xlink="http://www.w3.org/1999/xlink" version="1.1" width="140" height="140" viewBox="0 0 140 140">
    <rect width="100%" height="100%" x="0" y="0" fill="#fafafa" stroke="none" />
    <g transform="translate(864.859 365) scale(1.53963 1.53963)">
        <g>
            <g>
                <polygon fill="#404041" points="-536.264 -156.873 -516.681 -166.144 -554.382 -174.825" />
                <polygon fill="#404041" points="-494.56 -224.731 -514.142 -215.45 -476.441 -206.776" />
                <polygon fill="#404041" points="-549.341 -211.655 -540.063 -192.068 -531.385 -229.772"/>
                <polygon fill="#404041" points="-481.484 -169.943 -490.761 -189.533 -499.435 -151.832" />
                <polygon fill="#00968B" points="-506.167 -152.064 -498.878 -172.477 -531.67 -151.95" />
                <polygon fill="#00968B" points="-524.656 -229.537 -531.941 -209.127 -499.15 -229.655" />
                <polygon fill="#00968B" points="-554.15 -181.554 -533.74 -174.269 -554.264 -207.061" />
                <polygon fill="#00968B" points="-476.677 -200.047 -497.079 -207.331 -476.56 -174.54" />
            </g>
            <rect x="-203.8" y="610.503" transform="matrix(0.0064 1 -1 0.0064 107.484 -7.3906)" fill="#00968B" width="32.83" height="5.072" />
            <rect x="-209.867" y="613.073" transform="matrix(0.0062 1 -1 0.0062 101.422 3.7586)" fill="#404041" width="27.907" height="5.069" />
            <rect x="-216.101" y="615.563" transform="matrix(0.0063 1 -1 0.0063 95.3485 14.8955)" fill="#404041" width="22.979" height="5.073" />
        </g>
    </g>
</svg>
